<?xml version="1.0" standalone="no"?>
<!DOCTYPE svg PUBLIC "-//W3C//DTD SVG 20010904//EN"
    "http://www.w3.org/TR/2001/REC-SVG-20010904/DTD/svg10.dtd">
<svg version="1.0" xmlns="http://www.w3.org/2000/svg"
     width="1024.000000pt" height="1024.000000pt" viewBox="0 0 1024.000000 1024.000000"
     preserveAspectRatio="xMidYMid meet">
  <g transform="translate(0.000000,1024.000000) scale(0.100000,-0.100000)"
     fill="#003366" stroke="none">
    <path d="M395 10213 c-192 -41 -329 -180 -369 -375 -14 -70 -16 -522 -16
-4718 0 -4196 2 -4648 16 -4718 40 -197 179 -336 376 -376 70 -14 522 -16
4718 -16 4196 0 4648 2 4718 16 198 41 335 178 376 376 14 70 16 522 16 4718
0 4196 -2 4648 -16 4718 -41 198 -178 335 -376 376 -70 14 -521 16 -4725 15
-4087 -1 -4656 -2 -4718 -16z m5297 -2428 c617 -93 1096 -469 1192 -937 31
-149 17 -344 -35 -503 -49 -147 -160 -338 -263 -452 -113 -124 -285 -210 -398
-200 -117 10 -175 83 -166 205 7 87 45 197 102 297 77 133 143 276 160 346 81
333 -155 569 -645 645 -141 22 -438 25 -554 5 -271 -45 -500 -167 -606 -323
-152 -224 -104 -472 136 -696 147 -137 283 -221 699 -429 633 -317 857 -453
1067 -650 248 -234 372 -489 386 -793 12 -277 -53 -517 -201 -739 -261 -393
-741 -651 -1366 -738 -186 -25 -530 -23 -715 6 -519 79 -908 280 -1140 589
-165 219 -233 443 -223 727 4 102 11 147 30 207 80 244 269 419 481 444 93 11
177 -28 213 -98 22 -43 19 -143 -11 -288 -32 -157 -42 -320 -25 -418 23 -138
124 -294 249 -386 261 -192 710 -254 1154 -160 368 78 665 265 799 504 78 139
94 353 37 505 -65 173 -267 372 -546 538 -59 35 -220 121 -358 192 -701 359
-914 492 -1121 699 -161 162 -262 334 -298 508 -21 101 -21 295 0 396 20 99
78 240 139 337 60 97 193 237 304 321 224 169 592 303 941 343 128 15 475 12
582 -4z"/>
  </g>
</svg>
